<?xml version="1.0" encoding="UTF-8"?>
<svg width="6px" height="30px" viewBox="0 0 6 30" version="1.1" xmlns="http://www.w3.org/2000/svg" xmlns:xlink="http://www.w3.org/1999/xlink">
    <!-- Generator: Sketch 47.1 (45422) - http://www.bohemiancoding.com/sketch -->
    <title>Stroke 309</title>
    <desc>Created with Sketch.</desc>
    <defs></defs>
    <g id="TOP-LEVEL-PAGES" stroke="none" stroke-width="1" fill="none" fill-rule="evenodd">
        <g id="DESKTOP-1008-HOMEPAGE" transform="translate(-253.000000, -382.000000)" stroke="#FFFFFF" stroke-width="1.287">
            <path d="M257.146399,383.146523 L254.146523,386.146399 C253.951159,386.341763 253.951159,386.658113 254.146523,386.853477 L257.146399,389.853353 C256.951035,389.657989 256.951035,389.341639 257.146399,389.146275 L254.146523,392.146151 C253.951159,392.341515 253.951159,392.657865 254.146523,392.853229 L257.146399,395.853105 C256.951035,395.658733 256.951035,395.341391 257.146399,395.147019 L254.146523,398.146895 C253.951159,398.342259 253.951159,398.658609 254.146523,398.853973 L257.146399,401.853849 C256.951035,401.658485 256.951035,401.342135 257.146399,401.146771 L254.146523,404.146647 C253.951159,404.342011 253.951159,404.658361 254.146523,404.853725 L257.146399,407.853601 C256.951035,407.658237 256.951035,407.341887 257.146399,407.146523 L254.146523,410.146399 C253.951159,410.341763 253.951159,410.658113 254.146523,410.853477 C254.341887,411.048841 254.658237,411.048841 254.853601,410.853477 L257.853477,407.853601 C258.048841,407.658237 258.048841,407.341887 257.853477,407.146523 L254.853601,404.146647 C255.048965,404.342011 255.048965,404.658361 254.853601,404.853725 L257.853477,401.853849 C258.048841,401.658485 258.048841,401.342135 257.853477,401.146771 L254.853601,398.146895 C255.048965,398.342259 255.048965,398.658609 254.853601,398.853973 L257.853477,395.853105 C258.048841,395.658733 258.048841,395.341391 257.853477,395.147019 L254.853601,392.146151 C255.048965,392.341515 255.048965,392.657865 254.853601,392.853229 L257.853477,389.853353 C258.048841,389.657989 258.048841,389.341639 257.853477,389.146275 L254.853601,386.146399 C255.048965,386.341763 255.048965,386.658113 254.853601,386.853477 L257.853477,383.853601 C258.048841,383.658237 258.048841,383.341887 257.853477,383.146523 C257.658113,382.951159 257.341763,382.951159 257.146399,383.146523 Z" id="Stroke-309"></path>
        </g>
    </g>
</svg>