<?xml version="1.0" encoding="UTF-8"?><svg width="30" height="44" xmlns="http://www.w3.org/2000/svg" viewBox="0 0 30 44"><g fill="#FFF" fill-rule="evenodd"><path d="M27.456 37.113l-21.09 4.399V10.983l20.604-4.31.486.429v30.011zM4.633 41.408c-2.132-.713-2.31-2.4-2.323-2.663l.004-28.978c.73.593 1.576.967 2.32 1.177v30.464zM27.9 5.179c-.24-.21-.688-.327-1-.263L5.566 9.38c-.582-.108-2.804-.653-3.192-2.656l21.282-4.437a.579.579 0 0 0 .447-.684l-.117-.565a.58.58 0 0 0-.683-.448L1.202 5.198a.743.743 0 0 0-.568.697L.576 38.786c.035 1.387 1.136 4.136 5.05 4.604l.14.016L28.06 38.76c.625-.132 1.13-.755 1.13-1.392V6.897c0-.32-.193-.748-.433-.96l-.856-.758z"/><path d="M27.456 37.113l-21.09 4.399V10.983l20.604-4.31.486.429v30.011zM4.633 41.408c-2.132-.713-2.31-2.4-2.323-2.663l.004-28.978c.73.593 1.576.967 2.32 1.177v30.464zM27.9 5.179c-.24-.21-.688-.327-1-.263L5.566 9.38c-.582-.108-2.804-.653-3.192-2.656l21.282-4.437a.579.579 0 0 0 .447-.684l-.117-.565a.58.58 0 0 0-.683-.448L1.202 5.198a.743.743 0 0 0-.568.697L.576 38.786c.035 1.387 1.136 4.136 5.05 4.604l.14.016L28.06 38.76c.625-.132 1.13-.755 1.13-1.392V6.897c0-.32-.193-.748-.433-.96l-.856-.758z" stroke="#FFF" stroke-width=".5" stroke-linecap="round" stroke-linejoin="round"/><path d="M23.051 15.666l-11.365 2.38a.74.74 0 0 0-.565.694v.616c0 .319.253.524.565.46l11.365-2.38a.74.74 0 0 0 .566-.694v-.617c0-.318-.254-.523-.566-.459"/><path d="M23.051 15.666l-11.365 2.38a.74.74 0 0 0-.565.694v.616c0 .319.253.524.565.46l11.365-2.38a.74.74 0 0 0 .566-.694v-.617c0-.318-.254-.523-.566-.459z" stroke="#FFF" stroke-width=".5" stroke-linecap="round" stroke-linejoin="round"/><path d="M23.051 20.295l-11.365 2.38a.74.74 0 0 0-.565.694v.616c0 .319.253.524.565.46l11.365-2.38a.74.74 0 0 0 .566-.694v-.616c0-.319-.254-.524-.566-.46"/><path d="M23.051 20.295l-11.365 2.38a.74.74 0 0 0-.565.694v.616c0 .319.253.524.565.46l11.365-2.38a.74.74 0 0 0 .566-.694v-.616c0-.319-.254-.524-.566-.46z" stroke="#FFF" stroke-width=".5" stroke-linecap="round" stroke-linejoin="round"/><path d="M23.051 24.924l-11.365 2.38a.74.74 0 0 0-.565.694v.616c0 .319.253.524.565.46l11.365-2.38a.74.74 0 0 0 .566-.694v-.617c0-.318-.254-.523-.566-.459"/><path d="M23.051 24.924l-11.365 2.38a.74.74 0 0 0-.565.694v.616c0 .319.253.524.565.46l11.365-2.38a.74.74 0 0 0 .566-.694v-.617c0-.318-.254-.523-.566-.459z" stroke="#FFF" stroke-width=".5" stroke-linecap="round" stroke-linejoin="round"/></g></svg>