<?xml version="1.0" encoding="UTF-8"?><svg width="128" height="886" viewBox="0 0 128 886" xmlns="http://www.w3.org/2000/svg" xmlns:xlink="http://www.w3.org/1999/xlink"><view id="C" viewBox="0 0 33 42"/><svg width="33" height="42" viewBox="-10 -10 33 42" id="C-" xmlns="http://www.w3.org/2000/svg"><path d="M11 20a9 9 0 0 1 0-18" stroke="#FFF" stroke-width="2.206" fill="none" fill-rule="evenodd" stroke-linecap="round" stroke-linejoin="round"/></svg><view id="D" viewBox="0 42 31 38"/><svg width="31" height="38" viewBox="-10 -10 31 38" id="D-" y="42" xmlns="http://www.w3.org/2000/svg"><path d="M2 2v14A7 7 0 1 0 2 2z" stroke="#FFF" stroke-width="2.206" fill="none" fill-rule="evenodd"/></svg><view id="O" viewBox="0 80 31 31"/><svg width="31" height="31" viewBox="-10 -10 31 31" id="O-" y="80" xmlns="http://www.w3.org/2000/svg"><path d="M1 5.5a4.5 4.5 0 1 0 9 0 4.5 4.5 0 0 0-9 0z" stroke="#FFF" stroke-width="1.644" fill="none" fill-rule="evenodd" stroke-linecap="round" stroke-linejoin="round"/></svg><view id="arrow" viewBox="0 111 31 37"/><svg width="31" height="37" viewBox="-10 -10 31 37" id="arrow-" y="111" xmlns="http://www.w3.org/2000/svg"><path d="M4.26 17V4.91L1.839 7.332 0 5.496 5.5 0 11 5.496 9.162 7.332 6.739 4.91V17z" fill="#FFF" fill-rule="evenodd"/></svg><view id="arrow2" viewBox="0 148 36 32"/><svg width="36" height="32" viewBox="-10 -10 36 32" id="arrow2-" y="148" xmlns="http://www.w3.org/2000/svg"><path d="M14 1l-6 9-6-9z" stroke-width="1.685" stroke="#FFF" fill="none" fill-rule="evenodd"/></svg><view id="atom" viewBox="0 180 64 70"/><svg width="64" height="70" viewBox="-10 -10 64 70" id="atom-" y="180" xmlns="http://www.w3.org/2000/svg"><g fill="none" fill-rule="evenodd"><path d="M14.473 24.686c0 13.059 3.467 23.646 7.744 23.646 4.277 0 7.744-10.587 7.744-23.646 0-13.058-3.467-23.643-7.744-23.643-4.277 0-7.744 10.585-7.744 23.643z" stroke="#FFF" stroke-width="2" stroke-linecap="round" stroke-linejoin="round"/><path d="M18.016 31.192c10.971 7.083 21.744 9.912 24.065 6.32 2.319-3.593-4.694-12.247-15.665-19.33C15.448 11.097 4.673 8.266 2.354 11.86c-2.32 3.593 4.692 12.248 15.662 19.33z" stroke="#FFF" stroke-width="2" stroke-linecap="round" stroke-linejoin="round"/><path d="M26.459 31.165C37.384 24.013 44.342 15.313 42 11.736c-2.344-3.58-13.1-.681-24.025 6.47C7.05 25.362.092 34.06 2.435 37.639c2.342 3.577 13.099.68 24.024-6.473z" stroke="#FFF" stroke-width="2" stroke-linecap="round" stroke-linejoin="round"/><path d="M24.515 24.686a2.298 2.298 0 1 0-4.597.001 2.298 2.298 0 0 0 4.597 0M7.326 30.912a3.141 3.141 0 1 0-6.283 0 3.141 3.141 0 0 0 6.283 0M42.836 29.092a3.141 3.141 0 1 0-6.282 0 3.141 3.141 0 0 0 6.282 0M29.317 5.266a3.141 3.141 0 1 0-6.282-.001 3.141 3.141 0 0 0 6.282 0" fill="#FFF"/></g></svg><view id="bigspark" viewBox="0 250 50 51"/><svg width="50" height="51" viewBox="-10 -10 50 51" id="bigspark-" y="250" xmlns="http://www.w3.org/2000/svg"><g fill="none" fill-rule="evenodd"><path d="M27.927 28.312c1.227 1.362 1.115 1.474-.248.248l-10.354-9.319c-1.362-1.226-3.592-1.226-4.954 0l-10.354 9.32c-1.362 1.225-1.474 1.113-.248-.249l9.318-10.354c1.227-1.362 1.227-3.592 0-4.954L1.769 2.65C.543 1.287.655 1.176 2.017 2.402l10.354 9.32c1.362 1.225 3.592 1.225 4.954 0l10.354-9.32c1.363-1.226 1.475-1.115.248.248l-9.318 10.354c-1.227 1.362-1.227 3.592 0 4.954l9.318 10.354" fill="#FFF"/><path d="M27.927 28.312c1.227 1.362 1.115 1.474-.248.248l-10.354-9.319c-1.362-1.226-3.592-1.226-4.954 0l-10.354 9.32c-1.362 1.225-1.474 1.113-.248-.249l9.318-10.354c1.227-1.362 1.227-3.592 0-4.954L1.769 2.65C.543 1.287.655 1.176 2.017 2.402l10.354 9.32c1.362 1.225 3.592 1.225 4.954 0l10.354-9.32c1.363-1.226 1.475-1.115.248.248l-9.318 10.354c-1.227 1.362-1.227 3.592 0 4.954l9.318 10.354" stroke="#FFF" stroke-width="1.287"/><g><path d="M20.793 15c.539.232.539.61 0 .84l-2.888 1.238c-.539.23-1.169.86-1.4 1.4l-1.238 2.887c-.23.539-.608.539-.839 0l-1.238-2.887c-.23-.54-.86-1.17-1.399-1.4L8.903 15.84c-.539-.231-.539-.61 0-.84l2.888-1.238c.54-.23 1.17-.86 1.4-1.4l1.237-2.887c.231-.538.61-.538.84 0l1.237 2.888c.231.539.861 1.169 1.4 1.399L20.791 15" fill="#FFF"/><path d="M20.793 15c.539.232.539.61 0 .84l-2.888 1.238c-.539.23-1.169.86-1.4 1.4l-1.238 2.887c-.23.539-.608.539-.839 0l-1.238-2.887c-.23-.54-.86-1.17-1.399-1.4L8.903 15.84c-.539-.231-.539-.61 0-.84l2.888-1.238c.54-.23 1.17-.86 1.4-1.4l1.237-2.887c.231-.538.61-.538.84 0l1.237 2.888c.231.539.861 1.169 1.4 1.399L20.791 15" stroke="#FFF" stroke-width="1.287"/></g></g></svg><view id="book" viewBox="0 301 50 64"/><svg width="50" height="64" viewBox="-10 -10 50 64" id="book-" y="301" xmlns="http://www.w3.org/2000/svg"><g fill="#FFF" fill-rule="evenodd"><path d="M27.456 37.113l-21.09 4.399V10.983l20.604-4.31.486.429v30.011zM4.633 41.408c-2.132-.713-2.31-2.4-2.323-2.663l.004-28.978c.73.593 1.576.967 2.32 1.177v30.464zM27.9 5.179c-.24-.21-.688-.327-1-.263L5.566 9.38c-.582-.108-2.804-.653-3.192-2.656l21.282-4.437a.579.579 0 0 0 .447-.684l-.117-.565a.58.58 0 0 0-.683-.448L1.202 5.198a.743.743 0 0 0-.568.697L.576 38.786c.035 1.387 1.136 4.136 5.05 4.604l.14.016L28.06 38.76c.625-.132 1.13-.755 1.13-1.392V6.897c0-.32-.193-.748-.433-.96l-.856-.758z"/><path d="M27.456 37.113l-21.09 4.399V10.983l20.604-4.31.486.429v30.011zM4.633 41.408c-2.132-.713-2.31-2.4-2.323-2.663l.004-28.978c.73.593 1.576.967 2.32 1.177v30.464zM27.9 5.179c-.24-.21-.688-.327-1-.263L5.566 9.38c-.582-.108-2.804-.653-3.192-2.656l21.282-4.437a.579.579 0 0 0 .447-.684l-.117-.565a.58.58 0 0 0-.683-.448L1.202 5.198a.743.743 0 0 0-.568.697L.576 38.786c.035 1.387 1.136 4.136 5.05 4.604l.14.016L28.06 38.76c.625-.132 1.13-.755 1.13-1.392V6.897c0-.32-.193-.748-.433-.96l-.856-.758z" stroke="#FFF" stroke-width=".5" stroke-linecap="round" stroke-linejoin="round"/><path d="M23.051 15.666l-11.365 2.38a.74.74 0 0 0-.565.694v.616c0 .319.253.524.565.46l11.365-2.38a.74.74 0 0 0 .566-.694v-.617c0-.318-.254-.523-.566-.459"/><path d="M23.051 15.666l-11.365 2.38a.74.74 0 0 0-.565.694v.616c0 .319.253.524.565.46l11.365-2.38a.74.74 0 0 0 .566-.694v-.617c0-.318-.254-.523-.566-.459z" stroke="#FFF" stroke-width=".5" stroke-linecap="round" stroke-linejoin="round"/><path d="M23.051 20.295l-11.365 2.38a.74.74 0 0 0-.565.694v.616c0 .319.253.524.565.46l11.365-2.38a.74.74 0 0 0 .566-.694v-.616c0-.319-.254-.524-.566-.46"/><path d="M23.051 20.295l-11.365 2.38a.74.74 0 0 0-.565.694v.616c0 .319.253.524.565.46l11.365-2.38a.74.74 0 0 0 .566-.694v-.616c0-.319-.254-.524-.566-.46z" stroke="#FFF" stroke-width=".5" stroke-linecap="round" stroke-linejoin="round"/><path d="M23.051 24.924l-11.365 2.38a.74.74 0 0 0-.565.694v.616c0 .319.253.524.565.46l11.365-2.38a.74.74 0 0 0 .566-.694v-.617c0-.318-.254-.523-.566-.459"/><path d="M23.051 24.924l-11.365 2.38a.74.74 0 0 0-.565.694v.616c0 .319.253.524.565.46l11.365-2.38a.74.74 0 0 0 .566-.694v-.617c0-.318-.254-.523-.566-.459z" stroke="#FFF" stroke-width=".5" stroke-linecap="round" stroke-linejoin="round"/></g></svg><view id="cloud" viewBox="0 365 80 45"/><svg width="80" height="45" viewBox="-10 -10 80 45" id="cloud-" y="365" xmlns="http://www.w3.org/2000/svg"><path d="M59.975 25c.009-.17.025-.334.025-.507 0-4.783-3.769-8.665-8.418-8.665-.583 0-1.152.062-1.703.178h-.002c.005-.138.014-.27.014-.408 0-5.893-4.64-10.668-10.363-10.668-1.121 0-2.204.185-3.216.524C34.174 2.167 30.546 0 26.418 0 19.84 0 14.512 5.487 14.512 12.257v.002a10.237 10.237 0 0 0-3.963-.796C4.725 11.463 0 16.326 0 22.32c0 .928.124 1.822.339 2.68h59.636z" fill="#FFF" fill-rule="evenodd"/></svg><view id="dashedline" viewBox="0 410 128 22"/><svg width="128" height="22" viewBox="-10 -10 128 22" id="dashedline-" y="410" xmlns="http://www.w3.org/2000/svg"><g stroke="#FFF" stroke-width="2" fill="none" fill-rule="evenodd" stroke-linecap="round" stroke-linejoin="round"><path d="M1 1h27M37 1h70"/></g></svg><view id="dot" viewBox="0 432 30 30"/><svg width="30" height="30" viewBox="-10 -10 30 30" id="dot-" y="432" xmlns="http://www.w3.org/2000/svg"><path d="M10 5a5 5 0 1 0-10.002.002A5 5 0 0 0 10 5" fill="#FFF" fill-rule="evenodd"/></svg><view id="firework" viewBox="0 462 46 46"/><svg width="46" height="46" viewBox="-10 -10 46 46" id="firework-" y="462" xmlns="http://www.w3.org/2000/svg"><g stroke="#FFF" stroke-width="1.56" fill="none" fill-rule="evenodd" stroke-linecap="round" stroke-linejoin="round"><path d="M13.028 5.53V1M18.33 7.726l3.202-3.203M20.525 13.028h4.53M18.33 18.33l3.202 3.202M13.028 20.526v4.53M7.726 18.33l-3.203 3.202M5.53 13.028H1M7.726 7.726L4.523 4.523"/></g></svg><view id="hexagon" viewBox="0 508 37 35"/><svg width="37" height="35" viewBox="-10 -10 37 35" id="hexagon-" y="508" xmlns="http://www.w3.org/2000/svg"><path d="M12.25 1h-7.5L1 7.5 4.75 14h7.5L16 7.5z" stroke-width="1.685" stroke="#FFF" fill="none" fill-rule="evenodd"/></svg><view id="lazys" viewBox="0 543 50 37"/><svg width="50" height="37" viewBox="-10 -10 50 37" id="lazys-" y="543" xmlns="http://www.w3.org/2000/svg"><g stroke="#FFF" stroke-width="2.206" fill="none" fill-rule="evenodd" stroke-linecap="round" stroke-linejoin="round"><path d="M2 8.573a6.573 6.573 0 0 1 13.146 0M28.292 8.573a6.573 6.573 0 0 1-13.146 0"/></g></svg><view id="rocketship" viewBox="0 580 65 156"/><svg width="65" height="156" viewBox="-10 -10 65 156" id="rocketship-" y="580" xmlns="http://www.w3.org/2000/svg"><g fill="#FFF" fill-rule="evenodd"><path d="M30.956 53.552l.04-.057c1.11-1.597 4.735-7.67 4.735-18.743 0-12.762-7.247-24.84-13.453-31.304l-.095-.1-.096.1C15.88 9.913 8.633 21.99 8.634 34.751c0 11.08 3.625 17.148 4.736 18.743l.04.057h8.773l8.773.001zm-15.111 2.542v2.866H28.52v-2.867h-.764l-11.912.001zM7.087 45.455c-1.85 1.776-3.27 4.46-3.895 7.364-.6 2.777-.485 5.622.331 8.228l.161.516.097-.532c.793-4.377 2.701-7.208 5.833-8.655l.124-.057-.06-.122c-.98-1.983-1.777-4.229-2.37-6.677l-.054-.225-.167.16zm29.972.064c-.595 2.451-1.393 4.697-2.373 6.678l-.06.122.123.057c3.134 1.446 5.042 4.277 5.835 8.655l.097.533.162-.516c.815-2.608.93-5.454.33-8.229-.626-2.906-2.044-5.589-3.895-7.365l-.166-.16-.053.225zm2.681 21.854a1.268 1.268 0 0 1-1.271-1.271c0-6.35-1.632-10.125-4.992-11.54l-.102-.042-.063.092c-.43.65-.73 1.006-.762 1.045a1.27 1.27 0 0 1-.96.437h-.527v4.137c0 .701-.57 1.271-1.27 1.271h-15.22c-.7 0-1.27-.57-1.27-1.27v-4.139h-.53c-.367 0-.716-.16-.958-.438a11.23 11.23 0 0 1-.763-1.043l-.061-.092-.101.042c-3.362 1.416-4.995 5.19-4.995 11.54a1.268 1.268 0 0 1-1.27 1.27c-.412 0-.8-.2-1.038-.537C.613 62.63-.41 57.461.708 52.282c.892-4.135 3.053-7.686 5.926-9.744l.067-.048-.014-.082a48.491 48.491 0 0 1-.593-7.657C6.093 21.364 13.73 7.964 21.3.624c.238-.23.552-.358.884-.358.332 0 .645.127.884.358 7.57 7.338 15.206 20.737 15.206 34.128 0 2.62-.2 5.196-.594 7.655l-.014.082.068.048c2.873 2.057 5.034 5.61 5.925 9.745 1.117 5.18.094 10.348-2.88 14.553a1.272 1.272 0 0 1-1.038.538z"/><path d="M22.182 24.716a5.877 5.877 0 0 0-4.179 1.73 5.875 5.875 0 0 0-1.731 4.18c0 1.58.614 3.065 1.731 4.182a5.874 5.874 0 0 0 4.179 1.73 5.919 5.919 0 0 0 5.912-5.912 5.871 5.871 0 0 0-1.731-4.18 5.877 5.877 0 0 0-4.181-1.73zm-.004 14.363a8.4 8.4 0 0 1-5.972-2.473 8.41 8.41 0 0 1-2.476-5.98c0-2.258.88-4.38 2.476-5.978a8.399 8.399 0 0 1 5.976-2.475c2.258 0 4.381.88 5.978 2.475a8.4 8.4 0 0 1 2.476 5.978c0 4.66-3.793 8.452-8.454 8.453h-.004zM22.183 72.684c-.701 0-1.271-.57-1.271-1.271v-4.368a1.272 1.272 0 0 1 2.542 0v4.368c0 .701-.571 1.271-1.271 1.271M22.183 85.162c-.701 0-1.271-.57-1.271-1.272v-4.367a1.272 1.272 0 0 1 2.542 0v4.368c0 .7-.571 1.27-1.271 1.27M22.183 97.64c-.701 0-1.271-.57-1.271-1.271v-4.367a1.272 1.272 0 0 1 2.542 0v4.367c0 .701-.571 1.271-1.271 1.271M22.183 110.118c-.701 0-1.271-.57-1.271-1.27v-4.368a1.272 1.272 0 0 1 2.542 0v4.367c0 .702-.571 1.272-1.271 1.272M22.183 122.596c-.701 0-1.271-.57-1.271-1.27v-4.369a1.272 1.272 0 0 1 2.542 0v4.368c0 .701-.571 1.271-1.271 1.271M22.183 135.074c-.701 0-1.271-.57-1.271-1.271v-4.367a1.272 1.272 0 0 1 2.542 0v4.367c0 .7-.571 1.27-1.271 1.27M14.574 106.9c-.701 0-1.271-.57-1.271-1.27V74.688a1.272 1.272 0 0 1 2.542 0v30.942c0 .7-.571 1.27-1.271 1.27M29.791 120.723c-.7 0-1.27-.57-1.27-1.271v-24.39c0-.7.57-1.271 1.27-1.271.701 0 1.271.571 1.271 1.271v24.39c0 .701-.57 1.271-1.27 1.271M29.791 89.782c-.7 0-1.27-.57-1.27-1.271v-4.054c0-.701.57-1.272 1.27-1.272.701 0 1.271.57 1.271 1.272v4.054c0 .7-.57 1.27-1.27 1.27"/></g></svg><view id="squiggle" viewBox="0 736 26 50"/><svg width="26" height="50" viewBox="-10 -10 26 50" id="squiggle-" y="736" xmlns="http://www.w3.org/2000/svg"><path d="M4.146 1.147l-3 3a.5.5 0 0 0 0 .706l3 3a.5.5 0 0 1 0-.707l-3 3a.5.5 0 0 0 0 .707l3 3a.499.499 0 0 1 0-.706l-3 3a.5.5 0 0 0 0 .707l3 3a.5.5 0 0 1 0-.707l-3 3a.5.5 0 0 0 0 .707l3 3a.5.5 0 0 1 0-.707l-3 3a.5.5 0 1 0 .708.706l3-3a.5.5 0 0 0 0-.706l-3-3a.5.5 0 0 1 0 .707l3-3a.5.5 0 0 0 0-.707l-3-3a.5.5 0 0 1 0 .707l3-3a.499.499 0 0 0 0-.707l-3-3a.5.5 0 0 1 0 .706l3-3a.5.5 0 0 0 0-.707l-3-3a.5.5 0 0 1 0 .707l3-3a.5.5 0 1 0-.708-.706z" stroke="#FFF" stroke-width="1.287" fill="none" fill-rule="evenodd"/></svg><view id="star" viewBox="0 786 30 30"/><svg width="30" height="30" viewBox="-10 -10 30 30" id="star-" y="786" xmlns="http://www.w3.org/2000/svg"><g fill="none" fill-rule="evenodd"><path d="M8.942 4.673c.34.146.34.384 0 .53l-1.821.78c-.34.145-.737.543-.882.882l-.78 1.821c-.146.34-.384.34-.53 0l-.78-1.82c-.146-.34-.543-.738-.883-.883l-1.82-.78c-.34-.146-.34-.384 0-.53l1.82-.78c.34-.146.737-.543.883-.883l.78-1.82c.146-.34.384-.34.53 0l.78 1.82c.145.34.543.737.882.883l1.82.78" fill="#FFF"/><path d="M8.942 4.673c.34.146.34.384 0 .53l-1.821.78c-.34.145-.737.543-.882.882l-.78 1.821c-.146.34-.384.34-.53 0l-.78-1.82c-.146-.34-.543-.738-.883-.883l-1.82-.78c-.34-.146-.34-.384 0-.53l1.82-.78c.34-.146.737-.543.883-.883l.78-1.82c.146-.34.384-.34.53 0l.78 1.82c.145.34.543.737.882.883l1.82.78" stroke="#FFF" stroke-width="1.287"/></g></svg><view id="star2" viewBox="0 816 27 27"/><svg width="27" height="27" viewBox="-10 -10 27 27" id="star2-" y="816" xmlns="http://www.w3.org/2000/svg"><g stroke="#FFF" stroke-width="1.383" fill="none" fill-rule="evenodd" stroke-linecap="round"><path d="M1 1l5 5M6 1L1 6"/></g></svg><view id="sunburst" viewBox="0 843 64 43"/><svg width="64" height="43" viewBox="-10 -10 64 43" id="sunburst-" y="843" xmlns="http://www.w3.org/2000/svg"><g stroke="#FFF" stroke-width="2.058" fill="none" fill-rule="evenodd" stroke-linecap="round"><path d="M22.045 15.647L22 1M31 16.103L37.066 10M13.103 16.066L7 10M5.915 21L1 21.015M42.915 21L38 21.015"/></g></svg></svg>