<svg width="147" height="181" xmlns="http://www.w3.org/2000/svg"><g fill="none" fill-rule="evenodd"><path d="M5.097 92.41c0-26.935 21.914-48.849 48.849-48.849 26.937 0 48.85 21.914 48.85 48.85 0 26.934-21.913 48.848-48.85 48.848-26.935 0-48.849-21.914-48.849-48.849M53.946 0v38.464C24.199 38.464 0 62.664 0 92.41c0 29.747 24.2 53.946 53.946 53.946 5.425 0 10.66-.813 15.604-2.309l11.113 36.846c18.612-5.614 35.336-17.288 47.093-32.874 12.169-16.13 18.6-35.36 18.6-55.609C146.356 41.455 104.9 0 53.946 0" fill="#7BC6BA"/><text font-family="Roboto-Bold, Roboto" font-size="40" font-weight="bold" fill="#FAFAFA"><tspan x="16" y="105">45%</tspan></text></g></svg>